<svg version="1.1" xmlns="http://www.w3.org/2000/svg"  viewBox="0 0 64 64" width="64" height="64"><path d="M0 0 C21.12 0 42.24 0 64 0 C64 21.12 64 42.24 64 64 C42.88 64 21.76 64 0 64 C0 42.88 0 21.76 0 0 Z " transform="translate(0,0)" style="fill: #010102;"></path><path d="M0 0 C1.70736328 0.03673828 1.70736328 0.03673828 3.44921875 0.07421875 C6.3125 0.3125 6.3125 0.3125 8.3125 1.3125 C8.3125 1.9725 8.3125 2.6325 8.3125 3.3125 C9.055 3.539375 9.7975 3.76625 10.5625 4 C13.94023239 5.61209955 15.30913829 7.16436018 17.3125 10.3125 C17.456875 11.364375 17.60125 12.41625 17.75 13.5 C17.935625 14.428125 18.12125 15.35625 18.3125 16.3125 C19.95284193 17.04154086 21.62551918 17.69905243 23.3125 18.3125 C27.26984746 22.08996803 29.01954474 24.86883994 29.38671875 30.35546875 C29.27416548 33.32332072 28.55989167 35.6306079 27.3125 38.3125 C26.755625 38.786875 26.19875 39.26125 25.625 39.75 C23.88706879 41.44589043 23.88706879 41.44589043 24.625 45 C24.9653125 46.6396875 24.9653125 46.6396875 25.3125 48.3125 C23.9925 48.3125 22.6725 48.3125 21.3125 48.3125 C20.6525 46.9925 19.9925 45.6725 19.3125 44.3125 C18.9825 44.6425 18.6525 44.9725 18.3125 45.3125 C16.64632885 45.35313832 14.97861905 45.355221 13.3125 45.3125 C13.3125 47.9525 13.3125 50.5925 13.3125 53.3125 C11.9925 53.3125 10.6725 53.3125 9.3125 53.3125 C9.1171875 51.26171875 8.921875 49.2109375 8.7265625 47.16015625 C8.52160156 46.24556641 8.52160156 46.24556641 8.3125 45.3125 C7.3225 44.8175 7.3225 44.8175 6.3125 44.3125 C6.3125 47.2825 6.3125 50.2525 6.3125 53.3125 C4.9925 53.3125 3.6725 53.3125 2.3125 53.3125 C2.32410156 52.46945313 2.33570312 51.62640625 2.34765625 50.7578125 C2.35667969 49.66210938 2.36570312 48.56640625 2.375 47.4375 C2.39240234 45.80167969 2.39240234 45.80167969 2.41015625 44.1328125 C2.50994303 41.36072454 2.50994303 41.36072454 1.3125 39.3125 C-1.3780528 40.53257944 -1.3780528 40.53257944 -3.6875 42.3125 C-3.0275 42.6425 -2.3675 42.9725 -1.6875 43.3125 C-1.6875 46.6125 -1.6875 49.9125 -1.6875 53.3125 C-3.0075 53.3125 -4.3275 53.3125 -5.6875 53.3125 C-6.0175 50.3425 -6.3475 47.3725 -6.6875 44.3125 C-8.62309313 44.17745862 -10.561372 44.08048871 -12.5 44 C-13.57894531 43.94199219 -14.65789063 43.88398437 -15.76953125 43.82421875 C-18.90935516 44.00439001 -18.90935516 44.00439001 -20.57421875 46.83203125 C-20.94160156 47.65058594 -21.30898438 48.46914063 -21.6875 49.3125 C-22.6775 48.9825 -23.6675 48.6525 -24.6875 48.3125 C-24.44 47.075 -24.1925 45.8375 -23.9375 44.5625 C-23.5980524 42.37033015 -23.5980524 42.37033015 -23.6875 40.3125 C-24.97715176 38.93687146 -26.31439293 37.60483607 -27.6875 36.3125 C-28.87281922 31.06322917 -29.24508285 27.21453379 -26.6875 22.3125 C-24.53486469 20.0563726 -22.2865287 18.04109927 -19.6875 16.3125 C-19.0275 16.3125 -18.3675 16.3125 -17.6875 16.3125 C-17.5946875 14.7346875 -17.5946875 14.7346875 -17.5 13.125 C-16.52934214 8.57037468 -15.20294519 7.26866982 -11.6875 4.3125 C-10.94371094 3.61125 -10.19992188 2.91 -9.43359375 2.1875 C-6.02769019 -0.13801025 -4.08129922 -0.13495744 0 0 Z " transform="translate(31.6875,3.6875)" style="fill: #4E2218;"></path><path d="M0 0 C2.5625 1.9375 2.5625 1.9375 4 4 C4 4.66 4 5.32 4 6 C5.98 6 7.96 6 10 6 C10.268125 5.401875 10.53625 4.80375 10.8125 4.1875 C12.04201306 1.92260752 13.00292027 0.61754421 15 -1 C19.10279166 -1.91094686 23.23232944 -1.94808264 26.98828125 0.06640625 C29.34679607 2.13221756 30.72243121 3.90707288 31.5 6.96875 C31.80885355 11.98762015 30.29709677 15.15338711 27 19 C23.58449489 21.59107284 20.16674536 21.50288306 16 21 C12.09733059 18.5427637 10.31477346 17.19164237 9.125 12.6875 C9.08375 11.800625 9.0425 10.91375 9 10 C7.68 10 6.36 10 5 10 C4.9175 10.9075 4.835 11.815 4.75 12.75 C3.8962746 16.44947671 2.93346994 17.67047975 0 20 C-3.60572704 21.20190901 -6.2102435 21.32670315 -10 21 C-13.40850414 18.87915298 -15.81386655 16.8818913 -17 13 C-17.77894737 5.98947368 -17.77894737 5.98947368 -14.6875 2.0625 C-9.88432249 -1.62365948 -5.68063454 -1.35350859 0 0 Z " transform="translate(25,24)" style="fill: #C9C3C1;"></path><path d="M0 0 C1.70736328 0.03673828 1.70736328 0.03673828 3.44921875 0.07421875 C6.3125 0.3125 6.3125 0.3125 8.3125 1.3125 C8.3125 1.9725 8.3125 2.6325 8.3125 3.3125 C9.055 3.539375 9.7975 3.76625 10.5625 4 C13.9143353 5.59973957 15.29516141 7.21444431 17.3125 10.3125 C18.0625 13.125 18.0625 13.125 18.3125 15.3125 C17.66023438 15.33828125 17.00796875 15.3640625 16.3359375 15.390625 C10.44681877 15.7728097 6.85043884 16.4727056 2.3125 20.3125 C1.9825 20.9725 1.6525 21.6325 1.3125 22.3125 C-1.69491062 22.3125 -2.61225696 20.38774304 -4.6875 18.3125 C-6.82059192 17.07737921 -6.82059192 17.07737921 -8.6875 16.3125 C-8.6875 16.9725 -8.6875 17.6325 -8.6875 18.3125 C-10.6675 18.3125 -12.6475 18.3125 -14.6875 18.3125 C-14.6875 17.6525 -14.6875 16.9925 -14.6875 16.3125 C-15.6775 16.3125 -16.6675 16.3125 -17.6875 16.3125 C-17.44174885 12.13473052 -17.16293 9.88037473 -14.4375 6.625 C-13.53 5.861875 -12.6225 5.09875 -11.6875 4.3125 C-10.94371094 3.61125 -10.19992188 2.91 -9.43359375 2.1875 C-6.02769019 -0.13801025 -4.08129922 -0.13495744 0 0 Z " transform="translate(31.6875,3.6875)" style="fill: #154663;"></path><path d="M0 0 C0.33 0.66 0.66 1.32 1 2 C3.52733235 2.65555119 3.52733235 2.65555119 6 3 C6 2.34 6 1.68 6 1 C11.66153846 2.47692308 11.66153846 2.47692308 13.375 5.125 C13.684375 6.053125 13.684375 6.053125 14 7 C14.66 7 15.32 7 16 7 C16.3403125 6.1028125 16.3403125 6.1028125 16.6875 5.1875 C18.48026241 2.19956265 19.75993937 1.35002526 23 0 C28.01038751 -0.69426071 31.81371884 -0.59314058 36.375 1.6875 C41.07883561 5.83135518 43.5155262 8.78217411 44.05078125 15.0625 C43.98190696 17.69031916 43.22484746 19.69440478 42 22 C41.67 22 41.34 22 41 22 C40.67 20.35 40.34 18.7 40 17 C39.67 17 39.34 17 39 17 C38.938125 15.948125 38.87625 14.89625 38.8125 13.8125 C37.82066995 9.15852824 36.94603257 7.65753214 33 5 C29.50958726 4.24345734 26.47901613 4.15328581 23 5 C21.4001029 6.30262915 21.4001029 6.30262915 20.25 8 C18 11 18 11 14.9375 11.6875 C12 11 12 11 10.1875 8.5625 C7.74767436 5.70441853 7.12387828 5.51128698 3.5625 5 C-0.48315757 4.75380044 -2.79319897 5.3762537 -6 8 C-8.38392117 9.93970052 -8.38392117 9.93970052 -8.1953125 13.4765625 C-8.18201493 14.85950968 -8.15816232 16.24238654 -8.125 17.625 C-8.11146484 18.68460938 -8.11146484 18.68460938 -8.09765625 19.765625 C-8.07407603 21.51056098 -8.03820461 23.25532295 -8 25 C-11.8359375 23.328125 -11.8359375 23.328125 -13.3125 20.375 C-14.40858932 14.99419787 -14.19756578 10.85829173 -11.1875 6.1875 C-7.56720792 2.56720792 -5.15424747 0.7158677 0 0 Z " transform="translate(17,19)" style="fill: #81534E;"></path><path d="M0 0 C2 1.0625 2 1.0625 3 3 C3.49573337 6.89504791 3.58016848 9.09493717 1.4375 12.4375 C-1.92759017 14.59460908 -4.08204004 14.56988508 -8 14 C-9.9375 12.4375 -9.9375 12.4375 -11 10 C-11.35773097 6.60155579 -11.58904125 4.14126742 -10 1.0625 C-6.75978228 -0.65886567 -3.58042244 -0.52960415 0 0 Z " transform="translate(49,27)" style="fill: #B44B32;"></path><path d="M0 0 C2 1.0625 2 1.0625 3 3 C3.49573337 6.89504791 3.58016848 9.09493717 1.4375 12.4375 C-1.92759017 14.59460908 -4.08204004 14.56988508 -8 14 C-9.9375 12.4375 -9.9375 12.4375 -11 10 C-11.35773097 6.60155579 -11.58904125 4.14126742 -10 1.0625 C-6.75978228 -0.65886567 -3.58042244 -0.52960415 0 0 Z " transform="translate(23,27)" style="fill: #B44B32;"></path><path d="M0 0 C10.72393294 0.20989904 10.72393294 0.20989904 14.5625 3.0625 C19.05023841 8.47080014 19.28390075 14.18638204 19 21 C15.63856582 19.87952194 14.42471166 18.50292817 12 16 C11.34 15.67 10.68 15.34 10 15 C9.36780518 13.58330888 8.7923681 12.14095136 8.25 10.6875 C6.28767628 6.00468202 4.33848087 4.46504595 0 2 C0 1.34 0 0.68 0 0 Z " transform="translate(40,5)" style="fill: #281C1C;"></path><path d="M0 0 C1.22589844 0.01353516 1.22589844 0.01353516 2.4765625 0.02734375 C3.41628906 0.04474609 3.41628906 0.04474609 4.375 0.0625 C3.96507812 0.48660156 3.55515625 0.91070313 3.1328125 1.34765625 C-0.65881938 5.47491104 -2.15089145 8.58723968 -3.625 14.0625 C-6.72177419 17.0625 -6.72177419 17.0625 -9.625 17.0625 C-9.955 18.0525 -10.285 19.0425 -10.625 20.0625 C-10.955 20.0625 -11.285 20.0625 -11.625 20.0625 C-12.48608043 7.16542861 -12.48608043 7.16542861 -9.25 3.3125 C-5.83455247 0.38497354 -4.38244031 -0.06260629 0 0 Z " transform="translate(17.625,5.9375)" style="fill: #2A1B1C;"></path><path d="M0 0 C0 0.99 0 1.98 0 3 C-0.99 3.33 -1.98 3.66 -3 4 C-5.34132374 8.11669836 -5.23959299 12.2067431 -5.125 16.8125 C-5.11146484 17.85180664 -5.11146484 17.85180664 -5.09765625 18.91210938 C-5.07426157 20.60822395 -5.03839641 22.30415871 -5 24 C-8.8359375 22.328125 -8.8359375 22.328125 -10.3125 19.375 C-11.40858932 13.99419787 -11.19756578 9.85829173 -8.1875 5.1875 C-3 0 -3 0 0 0 Z " transform="translate(14,20)" style="fill: #713022;"></path><path d="M0 0 C0.33 0 0.66 0 1 0 C1.2493357 1.60115576 1.47378648 3.20620159 1.6875 4.8125 C1.81511719 5.70582031 1.94273438 6.59914063 2.07421875 7.51953125 C2 10 2 10 0.5 11.59375 C-0.2425 12.28984375 -0.2425 12.28984375 -1 13 C-0.76522801 16.64541845 -0.76522801 16.64541845 0 20 C-1.32 20 -2.64 20 -4 20 C-4.66 18.68 -5.32 17.36 -6 16 C-9.3 16 -12.6 16 -16 16 C-16 15.67 -16 15.34 -16 15 C-13.36 15 -10.72 15 -8 15 C-7.9175 14.4225 -7.835 13.845 -7.75 13.25 C-7 11 -7 11 -5.125 9.1875 C-2.36482774 6.3461462 -1.41666733 3.68333506 0 0 Z " transform="translate(57,32)" style="fill: #67382F;"></path><path d="M0 0 C4.65608217 1.33030919 7.62257785 3.82344758 10 8 C11.41790008 12.67449638 11.31950716 16.63386888 9 21 C8.67 21 8.34 21 8 21 C7.67 19.35 7.34 17.7 7 16 C6.67 16 6.34 16 6 16 C5.9071875 14.4221875 5.9071875 14.4221875 5.8125 12.8125 C4.8547131 8.31826914 3.25660068 7.08959551 0 4 C0 2.68 0 1.36 0 0 Z " transform="translate(50,20)" style="fill: #AA4028;"></path><path d="M0 0 C1.2684375 1.2375 1.2684375 1.2375 2.5625 2.5 C5.14066049 4.63532351 6.01010131 5.00144304 9.5 5.5 C13.22171803 4.968326 15.77093367 3.89018517 19 2 C17.63016497 5.16115776 17.0109362 5.9927092 14 8 C12.0625 8.23046875 12.0625 8.23046875 10 8.1875 C9.319375 8.18105469 8.63875 8.17460938 7.9375 8.16796875 C6 8 6 8 3 7 C2.67 8.98 2.34 10.96 2 13 C0.68 13 -0.64 13 -2 13 C-1.855625 12.154375 -1.71125 11.30875 -1.5625 10.4375 C-0.9941203 6.96406851 -0.48797607 3.48554338 0 0 Z " transform="translate(9,39)" style="fill: #753729;"></path><path d="M0 0 C0.66 0.33 1.32 0.66 2 1 C2 4.3 2 7.6 2 11 C0.68 11 -0.64 11 -2 11 C-2.33 8.03 -2.66 5.06 -3 2 C-6.96 2 -10.92 2 -15 2 C-15.33 1.34 -15.66 0.68 -16 0 C-14.84371094 0.01740234 -14.84371094 0.01740234 -13.6640625 0.03515625 C-12.15972656 0.04869141 -12.15972656 0.04869141 -10.625 0.0625 C-9.12839844 0.07990234 -9.12839844 0.07990234 -7.6015625 0.09765625 C-0.50607287 -0.16869096 -0.50607287 -0.16869096 0 0 Z " transform="translate(28,46)" style="fill: #3D2A2A;"></path><path d="M0 0 C-0.309375 0.825 -0.61875 1.65 -0.9375 2.5 C-2.11877583 6.39126155 -2.58224168 9.96166953 -3 14 C-4.98 14 -6.96 14 -9 14 C-6.34482759 -0 -6.34482759 -0 0 0 Z " transform="translate(26,8)" style="fill: #1D1415;"></path><path d="M0 0 C1.91015625 0.23046875 1.91015625 0.23046875 3.91015625 2.23046875 C3.91015625 3.22046875 3.91015625 4.21046875 3.91015625 5.23046875 C-0.04984375 5.23046875 -4.00984375 5.23046875 -8.08984375 5.23046875 C-6.61379594 -0.67372249 -5.84549858 0.11669779 0 0 Z " transform="translate(47.08984375,26.76953125)" style="fill: #56281E;"></path><path d="M0 0 C1.91015625 0.23046875 1.91015625 0.23046875 3.91015625 2.23046875 C3.91015625 3.22046875 3.91015625 4.21046875 3.91015625 5.23046875 C-0.04984375 5.23046875 -4.00984375 5.23046875 -8.08984375 5.23046875 C-6.61379594 -0.67372249 -5.84549858 0.11669779 0 0 Z " transform="translate(21.08984375,26.76953125)" style="fill: #56281E;"></path><path d="M0 0 C0 0.66 0 1.32 0 2 C-0.81984375 2.08636719 -1.6396875 2.17273438 -2.484375 2.26171875 C-9.20415541 2.90351674 -9.20415541 2.90351674 -14.5 6.625 C-14.995 7.40875 -15.49 8.1925 -16 9 C-17.32 9 -18.64 9 -20 9 C-20.66 8.01 -21.32 7.02 -22 6 C-21.67 5.01 -21.34 4.02 -21 3 C-20.34 4.32 -19.68 5.64 -19 7 C-18.34 7 -17.68 7 -17 7 C-16.773125 6.401875 -16.54625 5.80375 -16.3125 5.1875 C-12.5399965 -1.10000584 -6.5201419 -0.34183268 0 0 Z " transform="translate(50,19)" style="fill: #504850;"></path><path d="M0 0 C0.66 0.33 1.32 0.66 2 1 C1.38125 1.9075 0.7625 2.815 0.125 3.75 C-1.44389611 6.14948817 -2.80443821 8.40961612 -4 11 C-4.99 11 -5.98 11 -7 11 C-5.94230769 -0 -5.94230769 -0 0 0 Z " transform="translate(21,9)" style="fill: #18435D;"></path><path d="M0 0 C1.32 0.33 2.64 0.66 4 1 C4 3.97 4 6.94 4 10 C2.68 10 1.36 10 0 10 C0 6.7 0 3.4 0 0 Z " transform="translate(34,47)" style="fill: #3D7495;"></path><path d="M0 0 C0.804375 0.66 1.60875 1.32 2.4375 2 C6.43438034 4.72209596 10.33271604 4.37338272 15 4 C14.67 4.99 14.34 5.98 14 7 C9.19771544 7.33119204 6.83582992 7.43284049 2.5 5.1875 C1.675 4.465625 0.85 3.74375 0 3 C0 2.01 0 1.02 0 0 Z " transform="translate(35,40)" style="fill: #753728;"></path><path d="M0 0 C0.78503906 0.00644531 1.57007813 0.01289062 2.37890625 0.01953125 C4.4375 0.1875 4.4375 0.1875 6.4375 1.1875 C6.4375 1.8475 6.4375 2.5075 6.4375 3.1875 C7.4275 3.5175 8.4175 3.8475 9.4375 4.1875 C8.4475 4.6825 8.4475 4.6825 7.4375 5.1875 C6.85484375 4.89101562 6.2721875 4.59453125 5.671875 4.2890625 C2.94806391 2.94620459 0.70693267 2.77817376 -2.3125 2.5625 C-3.78976563 2.45035156 -3.78976563 2.45035156 -5.296875 2.3359375 C-6.04453125 2.28695313 -6.7921875 2.23796875 -7.5625 2.1875 C-4.404724 0.082316 -3.60852866 -0.06539344 0 0 Z " transform="translate(33.5625,3.8125)" style="fill: #356D8F;"></path><path d="M0 0 C0.99 0 1.98 0 3 0 C3 3.3 3 6.6 3 10 C2.01 10 1.02 10 0 10 C0 6.7 0 3.4 0 0 Z " transform="translate(27,47)" style="fill: #437FA3;"></path><path d="M0 0 C0.33 2.31 0.66 4.62 1 7 C-0.32 7 -1.64 7 -3 7 C-3.625 4.625 -3.625 4.625 -4 2 C-2 0 -2 0 0 0 Z " transform="translate(56,45)" style="fill: #10364D;"></path><path d="M0 0 C0.33 0 0.66 0 1 0 C1 4.29 1 8.58 1 13 C0.34 13 -0.32 13 -1 13 C-2.0070238 7.96488101 -1.97387813 4.76052962 0 0 Z " transform="translate(5,26)" style="fill: #B04425;"></path><path d="M0 0 C0.99 0.66 1.98 1.32 3 2 C2.34 3.98 1.68 5.96 1 8 C0.01 7.67 -0.98 7.34 -2 7 C-1.125 1.125 -1.125 1.125 0 0 Z " transform="translate(9,45)" style="fill: #10364D;"></path><path d="M0 0 C1.32 0 2.64 0 4 0 C4.33 1.98 4.66 3.96 5 6 C3.35 5.67 1.7 5.34 0 5 C0 5.66 0 6.32 0 7 C-0.66 6.67 -1.32 6.34 -2 6 C-1.34 4.02 -0.68 2.04 0 0 Z " transform="translate(30,34)" style="fill: #8D4230;"></path><path d="M0 0 C1.32 0 2.64 0 4 0 C4 1.98 4 3.96 4 6 C2.68 6 1.36 6 0 6 C0 4.02 0 2.04 0 0 Z " transform="translate(41,51)" style="fill: #3B7091;"></path><path d="M0 0 C1.32 0 2.64 0 4 0 C4 1.98 4 3.96 4 6 C2.68 6 1.36 6 0 6 C0 4.02 0 2.04 0 0 Z " transform="translate(19,51)" style="fill: #3C7394;"></path><path d="M0 0 C4.69879518 4.3373494 4.69879518 4.3373494 5.9375 7.0625 C6.01693993 9.52513785 5.26384713 10.91836944 4 13 C3.9175 11.948125 3.835 10.89625 3.75 9.8125 C2.94679238 5.72952791 1.80665291 3.9877273 -1 1 C-0.67 0.67 -0.34 0.34 0 0 Z " transform="translate(52,23)" style="fill: #934A39;"></path><path d="M0 0 C3.84685385 1.24762828 6.02929405 2.3870391 8 6 C7.67 6.99 7.34 7.98 7 9 C6.21625 8.175 5.4325 7.35 4.625 6.5 C2.36278736 3.77011494 2.36278736 3.77011494 0 4 C0 2.68 0 1.36 0 0 Z " transform="translate(50,20)" style="fill: #6E3327;"></path><path d="M0 0 C4.29 0.33 8.58 0.66 13 1 C13 1.33 13 1.66 13 2 C11.35 2 9.7 2 8 2 C8 2.66 8 3.32 8 4 C6.68 4 5.36 4 4 4 C3.67 3.34 3.34 2.68 3 2 C2.01 1.34 1.02 0.68 0 0 Z " transform="translate(37,47)" style="fill: #1D1515;"></path><path d="M0 0 C0.5775 0.226875 1.155 0.45375 1.75 0.6875 C0.76 0.6875 -0.23 0.6875 -1.25 0.6875 C-1.476875 1.30625 -1.70375 1.925 -1.9375 2.5625 C-3.62929835 5.30160209 -5.24244161 5.73774472 -8.25 6.6875 C-6.65594781 2.8352072 -4.57967475 -0.63606594 0 0 Z " transform="translate(27.25,4.3125)" style="fill: #225878;"></path><path d="M0 0 C3.3 0 6.6 0 10 0 C9.67 0.99 9.34 1.98 9 3 C7.68 3 6.36 3 5 3 C5 2.34 5 1.68 5 1 C3.35 1 1.7 1 0 1 C0 0.67 0 0.34 0 0 Z " transform="translate(14,48)" style="fill: #1A1314;"></path><path d="M0 0 C1.32 1.32 2.64 2.64 4 4 C3.34 5.32 2.68 6.64 2 8 C0 6 0 6 -0.125 2.875 C-0.08375 1.92625 -0.0425 0.9775 0 0 Z " transform="translate(9,39)" style="fill: #6A4744;"></path><path d="M0 0 C0.66 0.33 1.32 0.66 2 1 C1.67 1.99 1.34 2.98 1 4 C-2.3 4 -5.6 4 -9 4 C-9 3.67 -9 3.34 -9 3 C-6.36 3 -3.72 3 -1 3 C-0.67 2.01 -0.34 1.02 0 0 Z " transform="translate(50,44)" style="fill: #522319;"></path></svg>